<svg xmlns="http://www.w3.org/2000/svg" width="64" height="64" viewBox="0 0 64 64" fill="none">
<rect x="4.43408" y="4.15552" width="59.0078" height="59.0078" rx="8" fill="#151C28"/>
<rect x="0.27832" width="59.0078" height="59.0078" rx="8" fill="#0D121A"/>
<path d="M20.63 29.9196L16.692 33.8564L12.7441 29.9196L16.6821 25.9827L20.63 29.9196ZM30.2021 20.3502L36.9571 27.1033L40.8951 23.1664L30.2021 12.4666L19.4992 23.1664L23.4371 27.1033L30.2021 20.3502ZM43.7122 25.9827L39.7742 29.9196L43.7122 33.8564L47.6501 29.9196L43.7122 25.9827ZM30.2021 39.489L23.4471 32.7358L19.5091 36.6727L30.2021 47.3726L40.8951 36.6727L36.9571 32.7358L30.2021 39.489ZM30.2021 33.8564L34.1401 29.9196L30.2021 25.9827L26.2542 29.9196L30.2021 33.8564Z" fill="url(#paint0_linear_838_357)"/>
<defs>
<linearGradient id="paint0_linear_838_357" x1="30.1971" y1="12.4666" x2="30.1971" y2="47.3726" gradientUnits="userSpaceOnUse">
<stop stop-color="#F3BA2F"/>
<stop offset="1" stop-color="#F3BA2F"/>
</linearGradient>
</defs>
</svg>