<svg xmlns="http://www.w3.org/2000/svg" width="59" height="59" viewBox="0 0 59 59" fill="none">
  <rect width="59.0078" height="59.0078" rx="8" fill="#0D121A"/>
  <path d="M20.3518 29.9195L16.4138 33.8563L12.466 29.9195L16.4039 25.9826L20.3518 29.9195ZM29.9239 20.3501L36.679 27.1032L40.6169 23.1663L29.9239 12.4665L19.221 23.1663L23.159 27.1032L29.9239 20.3501ZM43.434 25.9826L39.496 29.9195L43.434 33.8563L47.372 29.9195L43.434 25.9826ZM29.9239 39.4889L23.1689 32.7357L19.2309 36.6726L29.9239 47.3725L40.6169 36.6726L36.679 32.7357L29.9239 39.4889ZM29.9239 33.8563L33.8619 29.9195L29.9239 25.9826L25.976 29.9195L29.9239 33.8563Z" fill="url(#paint0_linear_1_20)"/>
  <defs>
    <linearGradient id="paint0_linear_1_20" x1="29.919" y1="12.4665" x2="29.919" y2="47.3725" gradientUnits="userSpaceOnUse">
      <stop stop-color="#F3BA2F"/>
      <stop offset="1" stop-color="#F3BA2F"/>
    </linearGradient>
  </defs>
</svg>