<svg xmlns="http://www.w3.org/2000/svg" width="26" height="26" viewBox="0 0 26 26" fill="none">
  <g clip-path="url(#clip0_0_3)">
    <mask id="mask0_0_3" style="mask-type:luminance" maskUnits="userSpaceOnUse" x="0" y="0" width="26" height="26">
      <path d="M26 0H0V26H26V0Z" fill="white"/>
    </mask>
    <g mask="url(#mask0_0_3)">
      <mask id="mask1_0_3" style="mask-type:luminance" maskUnits="userSpaceOnUse" x="0" y="0" width="26" height="26">
        <path d="M26 0H0V26H26V0Z" fill="white"/>
      </mask>
      <g mask="url(#mask1_0_3)">
        <path d="M19.5 0H6.5C2.91015 0 0 2.91015 0 6.5V19.5C0 23.0899 2.91015 26 6.5 26H19.5C23.0899 26 26 23.0899 26 19.5V6.5C26 2.91015 23.0899 0 19.5 0Z" fill="#151C28"/>
        <path d="M15.2344 13.3331V14.9175C15.2344 17.03 14.3894 17.875 12.2769 17.875H10.27C8.1575 17.875 7.3125 17.03 7.3125 14.9175V12.9106C7.3125 10.7981 8.1575 9.95312 10.27 9.95312H11.8544" stroke="white" stroke-linecap="round" stroke-linejoin="round"/>
        <path d="M15.2342 13.3331H13.5442C12.2767 13.3331 11.8542 12.9106 11.8542 11.6431V9.95312L15.2342 13.3331Z" stroke="white" stroke-linecap="round" stroke-linejoin="round"/>
        <path d="M12.3823 7.3125H14.4948" stroke="white" stroke-linecap="round" stroke-linejoin="round"/>
        <path d="M9.95312 8.89687C9.95312 8.02019 10.6608 7.3125 11.5375 7.3125H12.9212" stroke="white" stroke-linecap="round" stroke-linejoin="round"/>
        <path d="M17.8745 10.4813V13.7504C17.8745 14.569 17.2091 15.2345 16.3905 15.2345" stroke="white" stroke-linecap="round" stroke-linejoin="round"/>
        <path d="M17.8747 10.4812H16.2903C15.102 10.4812 14.7059 10.0852 14.7059 8.89687V7.3125L17.8747 10.4812Z" stroke="white" stroke-linecap="round" stroke-linejoin="round"/>
      </g>
    </g>
  </g>
  <defs>
    <clipPath id="clip0_0_3">
      <rect width="26" height="26" fill="white"/>
    </clipPath>
  </defs>
</svg>