<svg xmlns="http://www.w3.org/2000/svg" width="64" height="64" viewBox="0 0 64 64" fill="none">
  <path d="M51.0078 0H8C3.58172 0 0 3.58172 0 8V51.0078C0 55.4261 3.58172 59.0078 8 59.0078H51.0078C55.4261 59.0078 59.0078 55.4261 59.0078 51.0078V8C59.0078 3.58172 55.4261 0 51.0078 0Z" fill="#0D121A"/>
  <path d="M29.5002 9.9729L29.2368 10.8674V36.821L29.5002 37.0838L41.5472 29.9626L29.5002 9.9729Z" fill="#343434"/>
  <path d="M29.5 9.9729L17.4526 29.9626L29.5 37.0838V24.4866V9.9729Z" fill="#8C8C8C"/>
  <path d="M29.5 39.3646L29.3516 39.5455V48.7906L29.5 49.2239L41.5544 32.2471L29.5 39.3646Z" fill="#3C3C3B"/>
  <path d="M29.5 49.2239V39.3646L17.4526 32.2471L29.5 49.2239Z" fill="#8C8C8C"/>
  <path d="M29.5005 37.084L41.5475 29.9628L29.5005 24.4868V37.084Z" fill="#141414"/>
  <path d="M17.4526 29.9628L29.5 37.084V24.4868L17.4526 29.9628Z" fill="#393939"/>
</svg>