<svg xmlns="http://www.w3.org/2000/svg" width="64" height="64" viewBox="0 0 64 64" fill="none">
<rect x="4.71191" y="4.15552" width="59.0078" height="59.0078" rx="8" fill="#151C28"/>
<rect x="0.555664" width="59.0078" height="59.0078" rx="8" fill="#0D121A"/>
<path d="M30.5801 11.6355C40.7457 11.6355 48.9853 19.8663 48.9853 30.0209C48.9853 40.1756 40.7457 48.3991 30.5874 48.3991C20.4218 48.3991 12.1895 40.1683 12.1895 30.0209C12.1822 19.8663 20.4218 11.6355 30.5801 11.6355Z" fill="#8247E5"/>
<mask id="mask0_838_344" style="mask-type:luminance" maskUnits="userSpaceOnUse" x="18" y="19" width="25" height="22">
<path d="M42.5138 19.584H18.396V40.6961H42.5138V19.584Z" fill="white"/>
</mask>
<g mask="url(#mask0_838_344)">
<path d="M36.6125 26.0138C36.1708 25.7607 35.6061 25.7607 35.1065 26.0138L31.5876 28.0968L29.1983 29.4204L25.7446 31.4962C25.303 31.7493 24.7382 31.7493 24.2386 31.4962L21.5379 29.8544C21.0963 29.6012 20.7849 29.0949 20.7849 28.5308V25.3774C20.7849 24.8711 21.0383 24.372 21.5379 24.0538L24.2386 22.4771C24.6803 22.2239 25.245 22.2239 25.7446 22.4771L28.4453 24.1189C28.887 24.372 29.1983 24.8783 29.1983 25.4424V27.5255L31.5876 26.1368V23.9959C31.5876 23.4896 31.3342 22.9906 30.8346 22.6723L25.8098 19.7069C25.3681 19.4538 24.8034 19.4538 24.3038 19.7069L19.1558 22.7374C18.6562 22.9906 18.4028 23.4969 18.4028 23.9959V29.9195C18.4028 30.4257 18.6562 30.9248 19.1558 31.243L24.2458 34.2084C24.6875 34.4616 25.2523 34.4616 25.7519 34.2084L29.2055 32.1905L31.5949 30.8018L35.0486 28.7839C35.4902 28.5308 36.055 28.5308 36.5546 28.7839L39.2552 30.3607C39.6969 30.6138 40.0082 31.1201 40.0082 31.6842V34.8377C40.0082 35.344 39.7548 35.843 39.2552 36.1612L36.6197 37.738C36.1781 37.9911 35.6133 37.9911 35.1137 37.738L32.4058 36.1612C31.9641 35.9081 31.6528 35.4018 31.6528 34.8377V32.8198L29.2635 34.2084V36.2914C29.2635 36.7977 29.5169 37.2968 30.0165 37.615L35.1065 40.5804C35.5481 40.8335 36.1129 40.8335 36.6125 40.5804L41.7025 37.615C42.1442 37.3619 42.4555 36.8556 42.4555 36.2914V30.3028C42.4555 29.7965 42.2021 29.2975 41.7025 28.9792L36.6125 26.0138Z" fill="white"/>
</g>
</svg>