<svg xmlns="http://www.w3.org/2000/svg" width="60" height="59" viewBox="0 0 60 59" fill="none">
  <rect x="0.555664" width="59.0078" height="59.0078" rx="8" fill="#0D121A"/>
  <path d="M30.5803 11.6356C40.7458 11.6356 48.9854 19.8663 48.9854 30.021C48.9854 40.1756 40.7458 48.3992 30.5875 48.3992C20.4219 48.3992 12.1896 40.1684 12.1896 30.021C12.1824 19.8663 20.4219 11.6356 30.5803 11.6356Z" fill="#8247E5"/>
  <mask id="mask0_1_2" style="mask-type:luminance" maskUnits="userSpaceOnUse" x="18" y="19" width="25" height="22">
    <path d="M42.514 19.584H18.3961V40.6962H42.514V19.584Z" fill="white"/>
  </mask>
  <g mask="url(#mask0_1_2)">
    <path d="M36.6127 26.0138C36.171 25.7607 35.6063 25.7607 35.1067 26.0138L31.5878 28.0968L29.1985 29.4204L25.7448 31.4962C25.3031 31.7493 24.7384 31.7493 24.2388 31.4962L21.5381 29.8543C21.0965 29.6012 20.7851 29.0949 20.7851 28.5308V25.3773C20.7851 24.871 21.0385 24.372 21.5381 24.0537L24.2388 22.477C24.6805 22.2239 25.2452 22.2239 25.7448 22.477L28.4455 24.1188C28.8872 24.372 29.1985 24.8783 29.1985 25.4424V27.5254L31.5878 26.1368V23.9959C31.5878 23.4896 31.3344 22.9905 30.8348 22.6723L25.81 19.7069C25.3683 19.4538 24.8036 19.4538 24.304 19.7069L19.156 22.7374C18.6564 22.9905 18.403 23.4968 18.403 23.9959V29.9194C18.403 30.4257 18.6564 30.9248 19.156 31.243L24.246 34.2084C24.6877 34.4615 25.2525 34.4615 25.7521 34.2084L29.2057 32.1905L31.5951 30.8018L35.0488 28.7839C35.4904 28.5308 36.0552 28.5308 36.5548 28.7839L39.2554 30.3606C39.6971 30.6138 40.0084 31.1201 40.0084 31.6842V34.8376C40.0084 35.3439 39.755 35.843 39.2554 36.1612L36.6199 37.7379C36.1783 37.9911 35.6135 37.9911 35.1139 37.7379L32.406 36.1612C31.9643 35.9081 31.653 35.4018 31.653 34.8376V32.8197L29.2637 34.2084V36.2914C29.2637 36.7977 29.5171 37.2967 30.0167 37.615L35.1067 40.5804C35.5483 40.8335 36.1131 40.8335 36.6127 40.5804L41.7027 37.615C42.1444 37.3618 42.4557 36.8556 42.4557 36.2914V30.3028C42.4557 29.7965 42.2023 29.2974 41.7027 28.9792L36.6127 26.0138Z" fill="white"/>
  </g>
</svg>