<svg xmlns="http://www.w3.org/2000/svg" width="39" height="59" viewBox="0 0 39 59" fill="none">
  <path d="M19.7263 30.1777C13.9546 30.1777 9.27464 25.4977 9.27464 19.7261C9.27464 13.9544 13.9529 9.27443 19.7263 9.27443C22.5068 9.27443 25.0331 10.3609 26.9065 12.1315L30.5192 8.30987C27.7039 5.64777 23.9049 4.01465 19.7263 4.01465C11.0488 4.01465 4.0166 11.0486 4.0166 19.7243C4.0166 28.4001 11.0505 35.434 19.7263 35.434C23.9049 35.434 27.7039 33.8026 30.5192 31.1405L26.9065 27.3189C25.0331 29.0913 22.5068 30.1777 19.7263 30.1777Z" fill="white"/>
  <path d="M35.0777 23.0814C34.6737 24.9426 33.9373 26.6802 32.9379 28.2315L28.519 25.3779C29.1841 24.3455 29.6734 23.1876 29.9415 21.948L35.0777 23.0814Z" fill="white"/>
  <path d="M30.5175 31.1425L33.2754 34.0606C29.741 37.4017 24.9722 39.4509 19.7246 39.4509C8.83246 39.4509 0 30.6202 0 19.7263C0 8.83245 8.83245 0 19.7263 0C24.9739 0 29.7427 2.04924 33.2771 5.39036L30.5192 8.30839C27.7039 5.64804 23.9049 4.01491 19.7263 4.01491C11.0488 4.01491 4.01665 11.0488 4.01665 19.7246C4.01665 28.4004 11.0506 35.4343 19.7263 35.4343C23.9049 35.436 27.7039 33.8046 30.5175 31.1425ZM35.0617 16.3034L38.9843 15.4381C38.4672 13.1085 37.5392 10.9322 36.2787 8.99263L32.9045 11.1707C33.9091 12.715 34.6508 14.4474 35.0617 16.3034ZM35.0774 23.0814C34.6734 24.9426 33.937 26.6802 32.9376 28.2315L36.3118 30.4096C37.5671 28.463 38.4916 26.2832 39 23.9467L35.0774 23.0814Z" fill="url(#paint0_linear_838_665)"/>
  <path d="M35.0624 16.3033L29.9262 17.4368C29.6511 16.2024 29.1566 15.0515 28.4863 14.0243L32.9052 11.1707C33.9098 12.715 34.6515 14.4474 35.0624 16.3033Z" fill="white"/>
  <path d="M36.4279 50.1579V48.0118H34.2926V45.3992L32.1475 46.6986V53.3946C32.1475 54.5976 32.5066 55.5446 33.2132 56.2101C34.2199 57.1551 35.6213 57.2437 36.1139 57.2437C36.2159 57.2437 36.2788 57.2398 36.2925 57.2398L36.4259 57.23V55.2099L36.2749 55.2178C36.267 55.2178 35.4623 55.2532 34.8872 54.7059C34.4908 54.3279 34.2906 53.7609 34.2906 53.0206V50.1579H36.4279Z" fill="white"/>
  <path d="M35.5583 48.8372C35.8096 48.9828 36.1432 49.0459 36.4278 48.9671V48.0122H34.7988C34.9793 48.3449 35.2345 48.6481 35.5583 48.8372Z" fill="white"/>
  <path d="M9.5252 48.1103L9.43296 48.128H9.42903C8.99725 48.2304 8.60866 48.447 8.27305 48.6773V48.0355H6.13574V57.289H8.27305V52.6524C8.27305 51.9476 8.36725 51.2841 8.6479 50.8726C9.01295 50.3351 9.63904 50.1697 10.4653 50.1697H10.6086V48.0256H10.4653C10.15 48.0252 9.83536 48.0536 9.5252 48.1103Z" fill="white"/>
  <path d="M15.9453 48.0161C14.6656 48.0161 13.5626 48.467 12.6657 49.353C11.7688 50.2389 11.3135 51.3494 11.3135 52.6449C11.3135 53.9404 11.7688 55.0488 12.6657 55.9368C13.5626 56.8247 14.6656 57.2736 15.9453 57.2736C17.2367 57.2736 18.3436 56.8227 19.2347 55.9348C20.1257 55.0469 20.5771 53.9404 20.5771 52.6449C20.5771 51.3494 20.1257 50.2409 19.2347 49.353C18.3436 48.465 17.2348 48.0161 15.9453 48.0161ZM18.4555 52.6468C18.4555 53.3773 18.2121 53.9915 17.7313 54.4739C17.2504 54.9563 16.6499 55.2004 15.9453 55.2004C15.2407 55.2004 14.6382 54.9563 14.1593 54.4739C13.6804 53.9915 13.4351 53.3773 13.4351 52.6468C13.4351 51.9164 13.6784 51.3021 14.1593 50.8197C14.6401 50.3374 15.2407 50.0932 15.9453 50.0932C16.6499 50.0932 17.2524 50.3374 17.7313 50.8197C18.2102 51.3021 18.4536 51.9164 18.4555 52.6468Z" fill="white"/>
  <path d="M26.3974 48.0237C25.1178 48.0237 24.0148 48.4745 23.1179 49.3605C22.2209 50.2465 21.7656 51.3569 21.7656 52.6524C21.7656 53.9479 22.2209 55.0564 23.1179 55.9443C24.0148 56.8323 25.1178 57.2812 26.3974 57.2812C27.6888 57.2812 28.7958 56.8303 29.6868 55.9424C30.5778 55.0544 31.0292 53.9479 31.0292 52.6505C31.0292 51.353 30.5778 50.2465 29.6868 49.3586C28.7958 48.4706 27.6888 48.0237 26.3974 48.0237ZM28.9076 52.6524C28.9076 53.3829 28.6643 53.9972 28.1834 54.4795C27.7026 54.9619 27.102 55.206 26.3974 55.206C25.6929 55.206 25.0903 54.9619 24.6114 54.4795C24.1325 53.9972 23.8872 53.3829 23.8872 52.6524C23.8872 51.922 24.1306 51.3077 24.6114 50.8253C25.0923 50.343 25.6929 50.0988 26.3974 50.0988C27.102 50.0988 27.7045 50.343 28.1834 50.8253C28.6623 51.3077 28.9076 51.924 28.9076 52.6524Z" fill="white"/>
  <path d="M4.7374 48.0359H2.6001V50.18H4.7374V48.0359Z" fill="white"/>
  <path d="M4.7374 55.1492H2.6001V57.2932H4.7374V55.1492Z" fill="white"/>
  <path d="M11.3413 52.802C12.2677 53.2962 14.5934 54.3791 16.9329 53.7156C17.4235 53.5778 18.185 53.3258 19.0466 52.6308C19.2468 52.4693 19.4371 52.2941 20.7973 50.5536C22.0494 48.953 22.2104 48.6911 22.7148 48.2678C23.6803 47.4586 24.3084 47.4015 24.6656 47.4192C24.9404 47.4311 25.2289 47.4488 25.5488 47.7028C26.0218 48.0768 26.328 48.7777 26.5929 49.3822C26.6538 49.52 26.8323 49.9394 27.1111 50.465C27.1641 50.5635 27.1895 50.6127 27.219 50.6639C27.3368 50.8627 27.6076 51.2723 27.9746 51.5302C28.744 52.0696 29.4839 51.6208 29.6271 51.5302C29.4484 51.6203 29.2528 51.6717 29.053 51.6812C28.8532 51.6907 28.6537 51.6581 28.4672 51.5853C28.1571 51.4672 27.9275 51.2683 27.8195 51.1679C27.4977 50.8627 27.3093 50.5162 27.115 50.15C26.8284 49.6106 26.8638 49.5141 26.5144 48.7935C26.269 48.2855 26.1454 48.0316 25.9236 47.7638C25.5743 47.3405 25.2367 47.1751 25.1209 47.1239C25.0111 47.0747 24.7755 46.9861 24.383 47.0018C24.1494 47.0117 23.5783 47.0727 22.7991 47.6142C22.4046 47.8878 22.1633 48.1477 21.7021 48.6419C21.1486 49.2365 20.97 49.5239 20.3753 50.2386C19.7531 50.9868 19.4411 51.3609 19.0584 51.7034C18.8484 51.8925 17.9711 52.6563 16.66 52.9674C15.5158 53.2372 14.5973 53.0304 13.826 52.8473C12.9252 52.6328 12.1813 52.2961 11.6573 52.0165C11.5513 52.2764 11.4453 52.5402 11.3413 52.802Z" fill="#AA1A17"/>
  <path d="M12.8008 52.2017C13.4485 52.2095 15.0598 52.2903 16.5632 53.0738C17.0429 53.3157 17.4889 53.6195 17.8899 53.9776C18.0116 54.0878 18.1254 54.2 18.9085 55.1982C19.6288 56.1177 19.7191 56.2575 20.0233 56.541C20.6082 57.0805 21.0183 57.2419 21.2558 57.3128C21.4384 57.3699 21.6306 57.425 21.8584 57.3954C22.1959 57.3502 22.4472 57.1376 22.663 56.9525C22.7951 56.8378 22.9341 56.7313 23.0791 56.6335C23.1203 56.6059 23.1399 56.5922 23.1654 56.5784C23.3369 56.4791 23.5276 56.4179 23.7248 56.3992C24.2704 56.354 24.7296 56.6965 24.818 56.7655C24.5889 56.6119 24.3264 56.516 24.0526 56.4859C23.9004 56.4703 23.7469 56.4783 23.5972 56.5095C23.3637 56.5606 23.2165 56.6571 23.0614 56.7615C22.8357 56.9151 22.8514 56.9604 22.5727 57.173C22.3765 57.3226 22.2784 57.3974 22.1135 57.4546C21.929 57.5191 21.7335 57.546 21.5384 57.5333C21.4619 57.5293 21.3009 57.5116 21.0419 57.4191C20.8869 57.364 20.5139 57.2123 20.0351 56.8225C19.7937 56.6257 19.6504 56.4681 19.3776 56.1669C19.0518 55.8066 18.9516 55.6511 18.6062 55.2317C18.2452 54.7946 18.0626 54.5741 17.833 54.3517C17.7074 54.2296 17.1774 53.7275 16.3316 53.314C15.5936 52.9518 14.9715 52.8317 14.4475 52.7352C13.9554 52.6428 13.4564 52.5933 12.9558 52.5876C12.9029 52.4596 12.8518 52.3296 12.8008 52.2017Z" fill="#AA1A17"/>
  <path d="M21.4199 56.8879C21.3013 56.855 21.191 56.7973 21.0961 56.7187C21.0806 56.706 21.0662 56.6922 21.0529 56.6773C20.9795 56.6069 20.9107 56.5319 20.8468 56.4528C20.7448 56.3268 20.6251 56.1811 20.417 56.1123C20.2757 56.067 20.1442 56.0709 20.0146 56.0768C19.891 56.0827 19.6967 56.1024 19.4062 56.1989C19.4082 56.1615 19.4121 56.1241 19.4141 56.0866C19.5718 56.0404 19.7334 56.0088 19.8969 55.9921C20.0814 55.9764 20.1873 55.9882 20.2364 55.9961C20.36 56.0139 20.4796 56.0532 20.5897 56.1123C20.6839 56.1654 20.733 56.2166 20.8291 56.3229C20.9666 56.4726 20.9469 56.4942 21.0627 56.6044C21.1412 56.6793 21.2178 56.7501 21.3571 56.8092C21.449 56.846 21.5454 56.8705 21.6436 56.882C21.8263 56.9009 22.0109 56.8841 22.1873 56.8328C22.1206 56.8604 21.7614 56.9845 21.4199 56.8879Z" fill="#AA1A17"/>
  <path d="M25.877 49.2564C26.0222 49.5596 26.189 49.8884 26.452 50.1069C26.7084 50.1097 26.963 50.1502 27.2077 50.227C27.2868 50.1765 27.3565 50.1126 27.4138 50.038C27.6198 49.7742 27.7297 49.4296 27.7807 49.1028C27.8259 48.8035 27.7984 48.5082 27.7532 48.2129C26.9396 47.9883 26.0831 47.97 25.2607 48.1597C25.5315 48.4787 25.6945 48.8803 25.877 49.2564Z" fill="white"/>
  <path d="M19.5436 45.5291C19.4581 45.6776 19.3978 45.8393 19.365 46.0075C19.3611 46.0292 19.3571 46.0508 19.3532 46.0902C19.3355 46.2202 19.3257 46.3285 19.3218 46.4052C19.3178 46.4623 19.3178 46.5017 19.3178 46.5116C19.3139 46.6179 19.2747 47.0077 19.0372 47.4094C18.9077 47.6279 18.8115 47.6988 18.6996 47.9508C18.6691 48.0204 18.6435 48.0921 18.6231 48.1654C18.5858 48.2934 18.5367 48.5257 18.5681 48.5375C18.6172 48.5552 18.7899 47.939 19.0706 47.5531C19.1701 47.4131 19.2512 47.2609 19.312 47.1002C19.3611 46.9565 19.3708 46.8581 19.3885 46.6592C19.4141 46.3777 19.3807 46.3737 19.412 46.1513C19.4336 45.9997 19.4533 45.8559 19.5416 45.665C19.5997 45.5422 19.6708 45.426 19.7535 45.3184C19.8982 45.1314 20.0758 44.9725 20.2776 44.8499C20.1971 44.8892 19.7869 45.1097 19.5436 45.5291Z" fill="#AA1A17"/>
  <path d="M27.0439 51.9123C26.8246 52.1147 26.5621 52.2642 26.2765 52.3494C26.2372 52.3612 26.202 52.3671 26.1313 52.3829C25.8841 52.4356 25.6336 52.4711 25.3815 52.4892C24.9753 52.5226 24.5042 52.56 24.1 52.9007C23.8389 53.1212 23.6897 53.4047 23.5386 53.6981C23.4818 53.8103 23.4385 53.9067 23.4111 53.9737C23.044 54.2102 22.6359 54.3752 22.208 54.46C22.9106 53.8949 23.3463 53.4382 23.623 53.1094C23.7682 52.9361 23.9743 52.7116 24.31 52.5345C24.5415 52.4124 24.7182 52.3868 25.0715 52.3336C25.572 52.2588 25.5994 52.3336 25.986 52.251C26.251 52.1939 26.5002 52.1387 26.7986 51.9261C26.9924 51.7855 27.1637 51.6162 27.3069 51.424C27.6602 50.9574 27.7956 50.4514 27.8486 50.2053C27.825 50.3904 27.668 51.3335 27.0439 51.9123Z" fill="#AA1A17"/>
  <path d="M25.8826 47.5826C25.7308 47.5825 25.5802 47.5565 25.4371 47.5058C25.4194 47.4999 25.4017 47.492 25.3704 47.4783C25.2595 47.4319 25.152 47.3779 25.0485 47.3168C24.8836 47.2223 24.6913 47.114 24.4165 47.1022C24.232 47.0943 24.073 47.1357 23.92 47.1751C23.6784 47.2392 23.4457 47.3331 23.2272 47.4546C23.2173 47.4172 23.2075 47.3818 23.1997 47.3444C23.3768 47.2556 23.5614 47.1824 23.7512 47.1258C23.8853 47.083 24.0234 47.054 24.1633 47.0392C24.3179 47.024 24.4738 47.0306 24.6265 47.0589C24.758 47.0845 24.8345 47.1219 24.9857 47.1987C25.2016 47.305 25.1859 47.3326 25.3625 47.4093C25.4823 47.4605 25.598 47.5098 25.7845 47.5275C25.908 47.5391 26.0323 47.5371 26.1554 47.5216C26.3778 47.4929 26.594 47.4278 26.7953 47.3286C26.7187 47.37 26.3242 47.5846 25.8826 47.5826Z" fill="#AA1A17"/>
  <path d="M11.8032 53.6268C12.7846 54.1151 15.281 55.2412 18.1778 55.3082C18.7843 55.322 19.7362 55.3239 20.902 55.0738C21.1748 55.0148 21.4338 54.9479 23.4161 54.1623C25.2394 53.4397 25.4867 53.3138 26.1736 53.1562C27.4866 52.859 28.2363 52.9495 28.6524 53.0322C28.9743 53.0952 29.308 53.1641 29.6278 53.3826C30.1008 53.7055 30.3089 54.1938 30.4855 54.6152C30.5929 54.8777 30.7174 55.133 30.8584 55.379C30.8977 55.45 30.9173 55.4853 30.9428 55.5228C31.1252 55.7961 31.3634 56.0276 31.6415 56.202C32.4265 56.6863 33.3981 56.5624 33.5845 56.5348C33.3274 56.5544 32.7876 56.5643 32.2067 56.334C31.9659 56.2399 31.7403 56.1106 31.5375 55.95C31.2254 55.7 31.0822 55.4519 30.933 55.1881C30.7132 54.8022 30.7759 54.751 30.5247 54.2431C30.3481 53.8847 30.2578 53.7055 30.0577 53.4968C29.8274 53.2636 29.555 53.0765 29.255 52.9456C29.1372 52.8944 28.8801 52.792 28.4129 52.7231C28.1362 52.6817 27.4513 52.6049 26.415 52.7762C25.891 52.8629 25.5515 52.9731 24.8999 53.1818C24.1188 53.4319 23.844 53.5716 22.9883 53.8867C22.0913 54.2155 21.6438 54.3809 21.1179 54.5127C20.8294 54.5856 19.6283 54.875 18.0208 54.7983C16.6156 54.7313 15.5813 54.4202 14.7138 54.1545C13.9005 53.9054 13.1089 53.59 12.3469 53.2113C12.1644 53.3491 11.9838 53.487 11.8032 53.6268Z" fill="#AA1A17"/>
  <path d="M35.5679 50.8707C35.3693 51.0032 35.2002 51.1755 35.0713 51.3767C35.0556 51.4023 35.0419 51.4279 35.0144 51.4771C34.922 51.6487 34.8426 51.8271 34.7769 52.0107C34.667 52.3021 34.5395 52.6407 34.1941 52.8927C33.9605 53.064 33.7073 53.1369 33.462 53.2058C33.146 53.2944 32.5709 53.4204 31.5366 53.3357C30.9949 53.2924 30.7948 53.2294 29.3385 52.9105C29.0127 52.8396 28.7458 52.7825 28.5259 52.7352C28.4416 52.8061 28.3552 52.875 28.2649 52.938L28.2061 52.9793C28.4867 53.0266 28.7811 53.0837 29.0245 53.1309C29.7074 53.2648 29.9273 53.3318 30.5494 53.4302C31.0676 53.511 31.3384 53.5543 31.7486 53.5661C32.5611 53.5916 33.0851 53.4814 33.2971 53.4302C33.6523 53.3456 33.8447 53.257 33.933 53.2117C34.0253 53.1644 34.2941 53.0246 34.5178 52.7805C34.6592 52.627 34.7161 52.5009 34.8319 52.2509C34.9929 51.8965 34.9418 51.867 35.0871 51.5953C35.1851 51.4102 35.2813 51.235 35.505 51.044C35.6545 50.9191 35.8203 50.8151 35.9977 50.7349C36.4314 50.5341 36.8495 50.4947 37.0497 50.4868C36.9025 50.4848 36.1429 50.4868 35.5679 50.8707Z" fill="#AA1A17"/>
  <path d="M19.6986 46.7264C19.0744 47.1005 18.7368 47.6419 18.6014 47.8998C18.5661 47.9668 18.5406 48.0298 18.4856 48.1577C18.2937 48.6081 18.135 49.0721 18.0107 49.5458C17.7987 50.3156 17.5534 51.2114 16.7723 51.745C16.2423 52.1053 15.6496 52.1781 15.0746 52.2431C14.5211 52.3061 13.6282 52.3474 12.1777 52.0364C12.2601 52.2411 12.3426 52.4439 12.425 52.6487C13.583 52.8416 14.3524 52.82 14.7194 52.7963C15.5574 52.7432 16.0009 52.5936 16.2051 52.5167C16.419 52.434 17.0372 52.1762 17.5298 51.6052C17.8419 51.2429 17.9557 50.9181 18.1853 50.2664C18.5092 49.341 18.3796 49.2347 18.676 48.5358C18.8781 48.0593 19.0744 47.6124 19.5808 47.1891C19.7476 47.0493 20.1186 46.7697 20.7053 46.5728C21.7083 46.2342 22.7033 46.3464 23.1822 46.4291C22.8289 46.3464 21.0095 45.9428 19.6986 46.7264Z" fill="#AA1A17"/>
  <path d="M24.7759 57.9547C24.7073 57.9567 24.6387 57.9501 24.5717 57.935C24.4931 57.9167 24.4189 57.8825 24.3539 57.8346C24.2714 57.7794 24.2774 57.7617 24.191 57.6948C24.1871 57.7125 24.1811 57.7282 24.1772 57.746C24.1822 57.7494 24.1869 57.7534 24.191 57.7578C24.2402 57.8018 24.2927 57.8419 24.348 57.8779C24.3637 57.8878 24.3716 57.8937 24.3814 57.8996C24.4539 57.9408 24.5341 57.9669 24.6169 57.9764C24.8602 58.0058 25.1036 57.8956 25.1487 57.876C25.0299 57.9237 24.9038 57.9503 24.7759 57.9547Z" fill="#AA1A17"/>
  <path d="M25.6785 54.137C25.5121 54.1424 25.3458 54.1258 25.1838 54.0878C24.9404 54.0307 24.8011 53.9382 24.6559 53.8378C24.4577 53.7019 24.4695 53.6605 24.2634 53.4932C24.2535 53.5345 24.2418 53.5759 24.23 53.6192C24.2418 53.629 24.2535 53.6409 24.2653 53.6507C24.3853 53.7591 24.5125 53.8591 24.6461 53.9499C24.6853 53.9756 24.703 53.9893 24.7265 54.0031C24.9021 54.1029 25.0955 54.1671 25.2958 54.1921C25.8825 54.265 26.4674 53.9992 26.5793 53.946C26.2926 54.0625 25.9876 54.1272 25.6785 54.137Z" fill="#AA1A17"/>
  <path d="M24.8055 52.2014C24.7544 52.2879 24.6932 52.3679 24.623 52.4397C24.515 52.546 24.4248 52.5874 24.3286 52.6307C24.1971 52.6897 24.1794 52.6701 24.0283 52.7212C24.046 52.7409 24.0636 52.7587 24.0813 52.7783C24.0911 52.7764 24.0989 52.7724 24.1088 52.7705C24.2024 52.743 24.2942 52.7095 24.3836 52.6701C24.4091 52.6582 24.4228 52.6523 24.4365 52.6464C24.5436 52.5878 24.6382 52.5089 24.7152 52.4141C24.939 52.1365 24.9919 51.7506 24.9998 51.6777C24.9782 51.7781 24.9331 51.9888 24.8055 52.2014Z" fill="#AA1A17"/>
  <path d="M20.7207 50.3549C21.1247 50.1179 21.5592 49.9377 22.0121 49.8193C22.3222 49.7386 22.8109 49.6441 24.3732 49.7189C25.7705 49.7859 26.377 49.9099 27.1228 49.7603C27.4875 49.6819 27.8452 49.5739 28.1925 49.4374C28.394 49.355 28.5905 49.261 28.7812 49.1558C28.9422 49.0672 29.0933 48.9727 30.2061 48.0454C31.2286 47.1929 31.364 47.0531 31.7664 46.8247C32.5377 46.3857 33.0185 46.3443 33.2914 46.3463C33.5014 46.3463 33.7192 46.3502 33.9527 46.4743C34.2981 46.6574 34.5023 47.0137 34.6789 47.3209C34.7852 47.5102 34.9019 47.6936 35.0283 47.8702C35.0636 47.9194 35.0813 47.945 35.1029 47.9706C35.1853 48.071 35.3737 48.2777 35.6426 48.4037C36.2059 48.6676 36.7927 48.4195 36.9046 48.3703C36.619 48.4714 36.3109 48.4898 36.0155 48.4234C35.8465 48.3825 35.6854 48.314 35.5386 48.2206C35.305 48.069 35.1774 47.8938 35.044 47.7087C34.8477 47.4351 34.8791 47.3858 34.6436 47.0196C34.4768 46.7617 34.3944 46.6337 34.2373 46.4999C34.0672 46.3539 33.8677 46.2464 33.6524 46.1848C33.57 46.1612 33.3954 46.1199 33.0951 46.1376C32.9165 46.1474 32.4769 46.1908 31.8606 46.4861C31.5485 46.6357 31.3522 46.7735 30.9794 47.0393C30.5319 47.3583 30.3827 47.5099 29.8979 47.8918C29.3916 48.2915 29.1365 48.4904 28.8303 48.6774C28.6615 48.7798 27.9589 49.1932 26.9462 49.3803C26.4417 49.4728 25.8844 49.4433 24.7873 49.3763C23.1721 49.2779 22.487 49.1224 21.6588 49.5319C21.4758 49.6222 21.3028 49.7318 21.1427 49.8587C20.9994 50.0221 20.8601 50.1875 20.7207 50.3549Z" fill="#AA1A17"/>
  <path d="M31.8883 47.6537C31.6785 47.6255 31.4651 47.6457 31.2642 47.7127C31.2367 47.7226 31.2132 47.7324 31.1661 47.7521C31.0001 47.8217 30.8394 47.9033 30.6852 47.9963C30.436 48.1419 30.1455 48.3132 29.7726 48.2798C29.6773 48.2712 29.5836 48.25 29.4939 48.2168C29.4802 48.266 29.4664 48.3132 29.4487 48.3605C29.6418 48.4129 29.843 48.4276 30.0414 48.4038C30.226 48.3802 30.3398 48.3231 30.5675 48.2109C30.8893 48.0494 30.8756 47.9963 31.1347 47.886C31.3113 47.8112 31.4801 47.7403 31.7392 47.7423C31.9093 47.7445 32.0781 47.7731 32.2396 47.8269C32.6341 47.9549 32.9207 48.1931 33.0501 48.3152C32.9619 48.2207 32.4869 47.7364 31.8883 47.6537Z" fill="#AA1A17"/>
  <path d="M31.2805 48.0572C31.2135 48.0326 31.1435 48.0168 31.0725 48.01C30.9889 48.0028 30.9047 48.0128 30.8252 48.0395C30.7271 48.067 30.7251 48.0867 30.6191 48.1261C30.6211 48.1084 30.6211 48.0887 30.623 48.071C30.6289 48.069 30.6348 48.0651 30.6407 48.0631C30.7037 48.0353 30.7686 48.0122 30.835 47.9942C30.8479 47.9902 30.861 47.9869 30.8743 47.9844C30.9591 47.9668 31.0466 47.9668 31.1314 47.9844C31.3806 48.0336 31.5828 48.2226 31.6201 48.26C31.5208 48.1712 31.4056 48.1024 31.2805 48.0572Z" fill="#AA1A17"/>
  <path d="M17.127 53.1189C17.8198 53.5816 19.592 54.6842 21.796 55.1606C22.2572 55.261 22.9854 55.4028 23.9059 55.4146C24.1198 55.4166 24.3278 55.4106 25.9352 55.198C27.4131 55.0012 27.6172 54.9559 28.1609 54.9559C29.1991 54.9578 29.7603 55.1291 30.0705 55.2453C30.3079 55.3339 30.5552 55.4284 30.7731 55.6174C31.0969 55.897 31.197 56.2454 31.2814 56.5447C31.3329 56.7329 31.3978 56.9171 31.4757 57.096C31.4973 57.1472 31.509 57.1727 31.5228 57.2003C31.6339 57.4122 31.7884 57.598 31.9762 57.7457C32.5178 58.1769 33.2754 58.2399 33.4207 58.2517C33.2205 58.2261 32.8083 58.1533 32.3923 57.917C32.2223 57.8224 32.0658 57.7052 31.9271 57.5685C31.719 57.3598 31.6386 57.1767 31.5542 56.9837C31.4326 56.7002 31.4875 56.6766 31.3541 56.3085C31.2618 56.0485 31.2147 55.9206 31.0851 55.7552C30.8811 55.4953 30.6259 55.3319 30.5376 55.2768C30.4532 55.2256 30.2687 55.1212 29.9213 55.0071C29.7152 54.9381 29.201 54.7865 28.3885 54.7452C27.9783 54.7236 27.7055 54.7432 27.1815 54.7826C26.5554 54.8279 26.3297 54.8791 25.6369 54.9559C24.9127 55.0365 24.5516 55.0759 24.1335 55.0838C23.9039 55.0878 22.954 55.0976 21.7332 54.8082C20.6675 54.5562 19.9158 54.1998 19.2839 53.8966C18.696 53.6158 18.1286 53.2933 17.5862 52.9319C17.4351 52.9909 17.282 53.054 17.127 53.1189Z" fill="#AA1A17"/>
  <path d="M30.2909 56.6059C30.1534 56.4991 29.9959 56.4214 29.8276 56.3776C29.8061 56.3716 29.7845 56.3677 29.7433 56.3598C29.6014 56.3322 29.4578 56.3151 29.3134 56.3086C29.0819 56.2929 28.813 56.2751 28.5617 56.096C28.391 55.9739 28.287 55.8204 28.1889 55.6727C28.0927 55.5289 27.9534 55.2947 27.8277 54.8931C27.7865 54.9265 27.7453 54.958 27.7041 54.9915C27.7802 55.2061 27.8776 55.4125 27.9946 55.6077C28.0752 55.745 28.1714 55.8725 28.2811 55.9877C28.405 56.113 28.5498 56.2156 28.7089 56.2909C28.8483 56.3539 28.9504 56.3677 29.1525 56.3933C29.441 56.4307 29.4489 56.3894 29.6746 56.4307C29.8276 56.4582 29.9729 56.4878 30.1554 56.598C30.2743 56.6716 30.3825 56.7609 30.4773 56.8638C30.6502 57.0519 30.7837 57.2728 30.8698 57.5136C30.8384 57.4151 30.6834 56.9131 30.2909 56.6059Z" fill="#AA1A17"/>
  <path d="M31.5189 55.096C31.4443 55.033 31.3618 54.98 31.2736 54.9385C31.1401 54.8755 31.044 54.8657 30.9399 54.8558C30.7986 54.842 30.7908 54.8657 30.6338 54.8637C30.6435 54.842 30.6534 54.8204 30.6652 54.7967H30.6926C30.7876 54.7935 30.8826 54.7962 30.9772 54.8046C31.0047 54.8066 31.0184 54.8086 31.0341 54.8105C31.1507 54.8313 31.2624 54.8734 31.3638 54.9345C31.6602 55.1157 31.831 55.4425 31.8624 55.5075C31.7742 55.3502 31.6578 55.2107 31.5189 55.096Z" fill="#AA1A17"/>
  <path d="M27.1388 54.4382C26.9594 54.5427 26.7574 54.6022 26.5501 54.6114C26.5226 54.6114 26.4991 54.6114 26.45 54.6075C26.2796 54.5995 26.1102 54.577 25.9436 54.5406C25.6748 54.4874 25.3627 54.4244 25.0291 54.5957C24.8131 54.7059 24.6542 54.8851 24.4932 55.0721C24.4324 55.143 24.3834 55.206 24.3519 55.2493C24.1914 55.3069 24.0248 55.3459 23.8554 55.3655C23.7278 55.3812 23.599 55.3844 23.4707 55.3754C24.0458 55.0958 24.4265 54.8457 24.6777 54.6587C24.8092 54.5602 24.9918 54.4343 25.2449 54.3693C25.4216 54.324 25.5394 54.3397 25.7788 54.3693C26.1183 54.4106 26.1183 54.4696 26.3872 54.4835C26.5697 54.4933 26.7444 54.4992 26.9819 54.4027C27.1398 54.3355 27.2868 54.2445 27.4176 54.133C27.7454 53.8593 27.9436 53.5148 28.0318 53.3455C27.971 53.4735 27.6669 54.135 27.1388 54.4382Z" fill="#AA1A17"/>
  <path d="M25.5491 47.0095C25.4803 46.9868 25.4092 46.9723 25.3371 46.9662C25.2549 46.961 25.1725 46.9737 25.0957 47.0036C25.0015 47.0351 25.0034 47.0548 24.9053 47.0981C24.9034 47.0784 24.9014 47.0607 24.8994 47.041C24.9053 47.0391 24.9112 47.0351 24.9171 47.0332C24.9758 47.0027 25.0368 46.977 25.0997 46.9564C25.1118 46.9518 25.1243 46.9478 25.1369 46.9446C25.2206 46.925 25.3075 46.923 25.3921 46.9387C25.6452 46.982 25.8749 47.169 25.9181 47.2045C25.8063 47.12 25.6817 47.0542 25.5491 47.0095Z" fill="#AA1A17"/>
  <path d="M27.7388 49.3863C27.9252 49.5005 28.4002 49.7682 28.9792 49.845C29.1618 49.8711 29.3468 49.8764 29.5307 49.8608C29.5856 49.8548 29.6406 49.8489 30.0567 49.7446C30.4394 49.6481 30.4924 49.6304 30.6337 49.6166C30.9045 49.5891 31.0517 49.6245 31.1342 49.6481C31.1969 49.6678 31.2617 49.6875 31.3226 49.7367C31.4109 49.8076 31.4403 49.906 31.4658 49.9887C31.4815 50.0404 31.5006 50.0911 31.5227 50.1403C31.5287 50.1541 31.5326 50.162 31.5365 50.1699C31.5669 50.2261 31.6091 50.2751 31.6601 50.3136C31.8073 50.4219 32.0036 50.4199 32.0429 50.4199C31.9487 50.417 31.8562 50.3935 31.772 50.351C31.7266 50.3277 31.6843 50.2986 31.6464 50.2644C31.6009 50.2199 31.5654 50.1662 31.5424 50.1069C31.507 50.0281 31.5208 50.0202 31.4815 49.9198C31.454 49.8489 31.4403 49.8115 31.405 49.7682C31.3629 49.719 31.3123 49.6777 31.2558 49.6461C31.204 49.6196 31.1494 49.5991 31.093 49.5851C30.9612 49.5542 30.8256 49.5429 30.6906 49.5516C30.5846 49.5556 30.512 49.5694 30.3766 49.595C30.2137 49.6245 30.1567 49.6442 29.9762 49.6855C29.7878 49.7269 29.6955 49.7485 29.5876 49.7623C29.3785 49.7862 29.1671 49.7809 28.9595 49.7466C28.6789 49.7032 28.4787 49.6206 28.3119 49.5516C28.1546 49.4876 28.003 49.4105 27.8585 49.3213C27.8173 49.3429 27.778 49.3646 27.7388 49.3863Z" fill="#AA1A17"/>
  <path d="M27.4332 56.5508C27.3448 56.1833 27.2441 55.8178 27.1309 55.4542C27.0976 55.3459 27.0662 55.2357 27.0348 55.1234C26.8258 55.1731 26.6116 55.1976 26.3969 55.1963C25.6924 55.1963 25.0898 54.9522 24.6109 54.4697C24.1321 53.9874 23.8867 53.3732 23.8867 52.6427C23.8867 52.5502 23.8906 52.4615 23.8985 52.3729C23.7836 52.3387 23.6669 52.3105 23.5491 52.2883C22.9564 52.1741 22.3578 52.2233 21.7729 52.3375C21.7671 52.4379 21.7632 52.5403 21.7632 52.6427C21.7632 53.9382 22.2185 55.0467 23.1154 55.9346C23.1291 55.9484 23.1429 55.9602 23.1566 55.974C23.4079 55.8164 23.6591 55.659 23.9358 55.5447C24.3794 55.3616 24.8837 55.3065 25.2782 55.6274C25.4234 55.7456 25.5471 55.8991 25.5903 56.0862C25.6295 56.2614 25.6001 56.4406 25.5333 56.6059C25.4568 56.7969 25.341 56.9702 25.2076 57.1297C25.5967 57.2256 25.9962 57.2733 26.3969 57.2715C26.7888 57.2728 27.1794 57.2278 27.5608 57.1376C27.5235 56.9446 27.4803 56.7477 27.4332 56.5508Z" fill="white"/>
  <path d="M28.4481 53.0503C28.2432 53.047 28.0393 53.0796 27.8455 53.1467C27.8201 53.1566 27.7985 53.1644 27.7533 53.1842C27.6017 53.2482 27.4536 53.3205 27.3098 53.4007C27.0801 53.5287 26.8152 53.6763 26.4482 53.6842C26.2009 53.6901 25.9909 53.6291 25.7907 53.57C25.5964 53.513 25.2961 53.4086 24.8859 53.1644L24.8389 53.318C25.0684 53.4454 25.3088 53.5521 25.5571 53.6369C25.7338 53.6982 25.9158 53.7423 26.1008 53.7689C26.3078 53.7943 26.5175 53.7891 26.723 53.7531C26.8996 53.7197 27.0055 53.6704 27.2155 53.5681C27.5139 53.4244 27.4943 53.3869 27.7357 53.2846C27.9006 53.2156 28.0576 53.1507 28.3107 53.129C28.4757 53.1159 28.6417 53.1219 28.8053 53.1467C29.0997 53.1913 29.3839 53.2872 29.6453 53.4303C29.5491 53.3673 29.0388 53.0581 28.4481 53.0503Z" fill="#AA1A17"/>
  <path d="M14.2007 54.1155C14.3714 54.4049 14.8228 55.1117 15.5745 55.5783C15.8113 55.7304 16.0674 55.8496 16.336 55.9328C16.4185 55.9583 16.4989 55.98 17.1642 56.0626C17.7766 56.1394 17.8649 56.1414 18.0749 56.2045C18.4753 56.3226 18.6558 56.4643 18.752 56.5529C18.8246 56.6198 18.9012 56.6907 18.9463 56.8029C19.013 56.9683 18.9777 57.1377 18.9483 57.2853C18.9291 57.3757 18.9154 57.467 18.9071 57.559C18.9051 57.5846 18.9032 57.5984 18.9032 57.6122C18.9007 57.7159 18.9215 57.8188 18.9639 57.9134C19.0837 58.1713 19.3624 58.2874 19.4154 58.3072C19.2858 58.2463 19.1737 58.1535 19.0896 58.0374C19.043 57.9728 19.0072 57.901 18.9836 57.8248C18.9463 57.7047 18.9542 57.6122 18.962 57.5157C18.9738 57.372 19.0012 57.368 19.0268 57.1849C19.0445 57.055 19.0542 56.9919 19.0385 56.9014C19.0211 56.8008 18.9829 56.7049 18.9267 56.6198C18.877 56.5464 18.8161 56.4813 18.7461 56.4269C18.6814 56.3718 18.5145 56.2438 18.2103 56.1335C18.0572 56.0765 17.9473 56.0548 17.7373 56.0134C17.4861 55.9642 17.3879 55.9603 17.1054 55.917C16.809 55.8717 16.6598 55.85 16.4989 55.8067C16.1902 55.7206 15.8968 55.5863 15.6295 55.409C15.2703 55.1727 15.0544 54.9247 14.8758 54.7159C14.7057 54.519 14.554 54.3068 14.4225 54.082C14.3479 54.0919 14.2733 54.1037 14.2007 54.1155Z" fill="#AA1A17"/>
  <path d="M24.6329 51.8688C24.2922 51.9256 23.9437 51.9122 23.6084 51.8295C23.5632 51.8176 23.5259 51.8039 23.4474 51.7783C23.1771 51.6881 22.9129 51.5802 22.6565 51.4554C22.2444 51.2585 21.7655 51.0301 21.1551 51.1069C20.741 51.1581 20.4093 51.3333 20.0894 51.5026C19.7812 51.666 19.3082 51.9515 18.6881 52.5461C18.6488 52.4477 18.6115 52.3492 18.5723 52.2508C19.0885 51.796 19.4908 51.5459 19.689 51.4298C20.1385 51.1679 20.425 51.0714 20.5605 51.0301C20.7037 50.9868 21.1198 50.8706 21.5987 50.9021C21.9009 50.9238 22.0893 50.9986 22.4623 51.1482C22.9921 51.3609 22.9686 51.4416 23.3965 51.5853C23.6869 51.6838 23.9656 51.7724 24.3915 51.7507C24.6704 51.7334 24.9457 51.6784 25.2099 51.5873C25.8576 51.3687 26.3207 50.9966 26.5346 50.8076C26.3855 50.9533 25.6142 51.7034 24.6329 51.8688Z" fill="#AA1A17"/>
  <path d="M30.2527 46.5792C30.1857 46.6823 30.1409 46.7983 30.1212 46.9198C30.1193 46.9355 30.1173 46.9513 30.1153 46.9789C30.1061 47.0803 30.104 47.1823 30.1094 47.284C30.1153 47.4474 30.1212 47.6345 30.0113 47.8235C29.9367 47.9515 29.8327 48.0361 29.7326 48.1168C29.6364 48.1936 29.4775 48.3098 29.1968 48.4279C29.2223 48.4535 29.2498 48.4811 29.2773 48.5067C29.4261 48.4375 29.568 48.3545 29.7012 48.2586C29.7944 48.1929 29.8794 48.1162 29.9544 48.0302C30.0347 47.9346 30.0984 47.8261 30.1428 47.7093C30.1781 47.6069 30.1801 47.536 30.184 47.3923C30.1899 47.1895 30.1605 47.1856 30.1742 47.0261C30.184 46.9178 30.1938 46.8135 30.2605 46.6776C30.3045 46.5883 30.3614 46.5061 30.4293 46.4335C30.5537 46.2983 30.703 46.1887 30.869 46.1106C30.7983 46.1362 30.447 46.2819 30.2527 46.5792Z" fill="#AA1A17"/>
  <path d="M18.397 51.0994C18.0277 51.263 17.629 51.3495 17.2253 51.3534C17.1723 51.3534 17.1252 51.3494 17.029 51.3435C16.6972 51.3223 16.3673 51.2775 16.0418 51.2096C15.5197 51.1073 14.9114 50.9891 14.2421 51.2549C13.7888 51.4341 13.461 51.7255 13.1489 52.011C12.8467 52.2846 12.3933 52.7434 11.8595 53.5939C11.7868 53.4935 11.7162 53.395 11.6455 53.2946C12.1009 52.6312 12.4836 52.2334 12.674 52.0464C13.1077 51.6192 13.404 51.4282 13.5454 51.3416C13.6945 51.251 14.1342 50.997 14.6837 50.8966C15.033 50.8316 15.2646 50.8612 15.7317 50.9222C16.3932 51.0069 16.3892 51.1053 16.9132 51.1427C17.2705 51.1683 17.6099 51.188 18.085 51.0384C18.3962 50.9382 18.6926 50.7965 18.9662 50.617C19.6354 50.1819 20.0554 49.6287 20.2438 49.353C20.1201 49.5578 19.4607 50.6269 18.397 51.0994Z" fill="#AA1A17"/>
  <path d="M35.6188 47.1375C35.4525 47.1428 35.2862 47.1263 35.1243 47.0882C34.8809 47.0311 34.7415 46.9386 34.5963 46.8382C34.398 46.7023 34.4098 46.661 34.2037 46.4937C34.194 46.535 34.1822 46.5763 34.1704 46.6197C34.1822 46.6295 34.194 46.6413 34.2058 46.6512C34.3257 46.7595 34.4529 46.8595 34.5865 46.9504C34.6258 46.976 34.6434 46.9898 34.667 47.0036C34.8425 47.1034 35.0359 47.1676 35.2361 47.1926C35.823 47.2654 36.4078 46.9996 36.5197 46.9465C36.2332 47.0637 35.9281 47.1284 35.6188 47.1375Z" fill="#AA1A17"/>
  <path d="M36.2768 55.2178C36.2689 55.2178 35.4643 55.2532 34.8892 54.7059C34.4928 54.3279 34.2926 53.7609 34.2926 53.0206V50.1579H36.4259V49.1675C36.1316 49.2345 35.7999 49.1853 35.529 49.0455C35.1071 48.8309 34.7892 48.4371 34.5791 48.0118H34.2926V45.3992L32.1475 46.6986V53.3946C32.1475 53.9124 32.2142 54.3849 32.3476 54.8063C32.5733 54.8043 32.799 54.8162 33.0208 54.8634C33.7313 55.0111 34.2729 55.5624 34.5281 56.2317C34.6246 56.4871 34.6739 56.758 34.6733 57.0311C35.1408 57.1715 35.6259 57.2438 36.1139 57.2457C36.2159 57.2457 36.2788 57.2418 36.2925 57.2418L36.4259 57.2319V55.2119L36.2768 55.2178Z" fill="white"/>
  <path d="M21.2948 53.6157C21.0594 53.6148 20.8267 53.5645 20.6118 53.468C20.5844 53.4542 20.5588 53.4424 20.5097 53.4149C20.3391 53.3225 20.1746 53.2193 20.0172 53.1057C19.7639 52.9246 19.4696 52.7159 19.0496 52.6962C18.767 52.6825 18.5216 52.7592 18.2881 52.836C18.0624 52.9108 17.711 53.0447 17.2263 53.3716C17.2125 53.3006 17.1968 53.2298 17.1831 53.1589C17.5835 52.9148 17.8818 52.7927 18.027 52.7395C18.3588 52.6155 18.5628 52.584 18.659 52.5721C18.7591 52.5604 19.0535 52.5309 19.3715 52.6076C19.5716 52.6568 19.6894 52.7297 19.923 52.8734C20.2546 53.0781 20.2291 53.1293 20.4999 53.2771C20.6845 53.3775 20.8611 53.47 21.1476 53.5035C21.3371 53.5247 21.5285 53.52 21.7168 53.4896C22.176 53.4188 22.5313 53.2238 22.6981 53.1215C22.5784 53.2061 21.9739 53.6196 21.2948 53.6157Z" fill="#AA1A17"/>
  <path d="M14.7562 51.4972C14.5901 51.4205 14.4155 51.3636 14.2361 51.3279C13.9653 51.2767 13.7887 51.3062 13.6021 51.3397C13.347 51.385 13.3431 51.4303 13.0664 51.5031C13.0723 51.4578 13.0781 51.4125 13.0821 51.3673C13.0978 51.3613 13.1135 51.3574 13.1312 51.3515C13.2971 51.2994 13.4662 51.2579 13.6375 51.2275C13.6866 51.2196 13.7121 51.2137 13.7396 51.2117C13.9597 51.1916 14.1816 51.2143 14.3931 51.2787C15.0172 51.4637 15.5059 51.9796 15.5981 52.078C15.4608 51.9461 15.1684 51.6842 14.7562 51.4972Z" fill="#AA1A17"/>
  <path d="M32.7022 52.1876C32.5226 52.2205 32.3528 52.2938 32.2056 52.4022C32.186 52.416 32.1683 52.4317 32.135 52.4593C32.0148 52.5594 31.9026 52.6686 31.7994 52.7862C31.6286 52.9712 31.4304 53.1878 31.1184 53.2606C30.9064 53.3099 30.7141 53.2764 30.5296 53.243C30.351 53.2095 30.0723 53.1426 29.6699 52.9299C29.666 52.9909 29.6641 53.052 29.6621 53.115C29.9899 53.2685 30.2293 53.3316 30.3451 53.3571C30.6081 53.4181 30.7651 53.4181 30.8377 53.4142C31.0214 53.4087 31.2023 53.3666 31.3696 53.2902C31.5148 53.2213 31.5953 53.1465 31.7543 52.9929C31.9799 52.7763 31.9564 52.737 32.1429 52.5774C32.2704 52.4692 32.3921 52.3668 32.6041 52.2999C32.7434 52.2574 32.8882 52.2361 33.0339 52.2368C33.3871 52.2368 33.6776 52.355 33.8131 52.418C33.7129 52.3648 33.2105 52.0951 32.7022 52.1876Z" fill="#AA1A17"/>
  <path d="M29.48 52.2018C29.4251 52.1801 29.3132 52.1486 29.166 52.0895C29.0521 52.0443 28.9599 52.001 28.8991 51.9734C28.9049 52.127 28.9069 52.2845 28.903 52.4499C28.901 52.5246 28.8991 52.5995 28.8971 52.6723C28.899 52.9552 28.858 53.2367 28.7754 53.5071C28.9482 53.7434 29.1542 53.958 29.3505 54.1588C29.6736 54.4857 30.0143 54.7946 30.371 55.0841C30.8009 54.3773 31.0187 53.5701 31.0187 52.6723C31.0187 52.6349 31.0187 52.5956 31.0167 52.5581C30.7066 52.5424 30.3985 52.5109 30.1002 52.4262C29.8882 52.3613 29.6842 52.2845 29.48 52.2018Z" fill="white"/>
  <path d="M27.1822 52.6195C27.0081 52.7285 26.8249 52.8221 26.6346 52.8991C26.3539 53.0133 26.1754 53.033 25.9889 53.0527C25.7338 53.0802 25.7338 53.0408 25.459 53.0488C25.4609 53.0861 25.4609 53.1235 25.4629 53.1629H25.51C25.6778 53.166 25.8457 53.1581 26.0124 53.1393C26.0615 53.1334 26.087 53.1314 26.1165 53.1275C26.2263 53.1098 26.4776 53.0547 26.7877 52.901C27.4412 52.5802 27.9888 52.0072 28.0928 51.897C27.8178 52.1719 27.5122 52.4143 27.1822 52.6195Z" fill="#AA1A17"/>
  <path d="M18.1735 49.5479C18.1204 49.5676 18.0695 49.5893 18.0165 49.6109C18.044 49.4948 18.0891 49.3825 18.1558 49.2152C18.301 48.8569 18.354 48.8726 18.4522 48.5832C18.5189 48.3863 18.5797 48.1973 18.566 47.9099C18.5561 47.7201 18.5205 47.5327 18.46 47.3527C18.3167 46.9117 18.0675 46.5947 17.9419 46.449C18.04 46.5494 18.5385 47.077 18.6465 47.7445C18.6839 47.9758 18.6732 48.2125 18.6151 48.4395C18.6072 48.469 18.5974 48.4966 18.5797 48.5478C18.5182 48.7309 18.4448 48.9098 18.3599 49.0833C18.2952 49.225 18.2225 49.3766 18.1735 49.5479Z" fill="#AA1A17"/>
  <path d="M16.0829 49.4078C15.9399 49.4986 15.817 49.6179 15.7218 49.7582C15.71 49.776 15.7002 49.7937 15.6786 49.8291C15.6095 49.9509 15.5485 50.0772 15.4961 50.2071C15.4097 50.4139 15.3096 50.6541 15.0624 50.8273C14.8955 50.9435 14.7169 50.9907 14.5442 51.0321C14.3794 51.0734 14.1124 51.1246 13.6924 51.1108C13.7101 51.16 13.7277 51.2073 13.7474 51.2565C14.0849 51.2526 14.3126 51.2132 14.4225 51.1896C14.6718 51.1384 14.8072 51.0793 14.87 51.0498C15.0259 50.9771 15.168 50.8779 15.29 50.7564C15.394 50.6501 15.4372 50.5615 15.5255 50.3843C15.6491 50.1323 15.6158 50.1107 15.7237 49.9177C15.7983 49.7858 15.8709 49.6618 16.0318 49.5318C16.1389 49.4465 16.2571 49.3763 16.3832 49.3231C16.617 49.225 16.8677 49.1742 17.1211 49.1735C17.0211 49.1656 16.4951 49.1459 16.0829 49.4078Z" fill="#AA1A17"/>
  <path d="M15.2525 56.2633C15.119 55.781 14.8541 55.3656 14.542 54.9796C14.5321 54.9669 14.5252 54.9521 14.5218 54.9363C14.5185 54.9205 14.5187 54.9042 14.5224 54.8885C14.5262 54.8727 14.5335 54.8581 14.5436 54.8456C14.5538 54.8331 14.5667 54.8231 14.5813 54.8163C14.4291 54.7179 14.2883 54.603 14.1613 54.4736C13.6824 53.9913 13.4371 53.377 13.4371 52.6466C13.4371 51.9161 13.6804 51.3019 14.1613 50.8195C14.2044 50.7762 14.2496 50.7329 14.2967 50.6935C14.2537 50.4205 14.1947 50.1503 14.1201 49.8843C13.9953 49.4491 13.804 49.0359 13.5529 48.6597C13.231 48.8547 12.9338 49.088 12.6677 49.3547C11.7708 50.2426 11.3154 51.3511 11.3154 52.6466C11.3154 53.9421 11.7708 55.0505 12.6677 55.9385C13.439 56.7024 14.3634 57.1414 15.4232 57.2497C15.3898 56.915 15.3428 56.5843 15.2525 56.2633Z" fill="white"/>
  <path d="M17.6909 50.7566C18.737 49.7505 19.1296 49.3902 19.2336 49.3095C19.2946 49.2631 19.3511 49.2111 19.4024 49.154C19.4558 49.0962 19.5037 49.0335 19.5457 48.9669C19.5712 48.9256 19.5947 48.8842 19.738 48.5082C19.8695 48.1636 19.8832 48.1105 19.948 48.0042C20.0736 47.8014 20.1815 47.7384 20.2443 47.7108C20.2934 47.6891 20.3464 47.6675 20.417 47.6773C20.5211 47.6911 20.6153 47.7699 20.6957 47.8368C20.7134 47.8526 20.7703 47.8978 20.8488 47.953C20.8587 47.9603 20.8693 47.9669 20.8802 47.9727C20.9356 48.0072 20.998 48.0287 21.0627 48.0357C21.2296 48.0494 21.3356 47.9195 21.3552 47.8939C21.3019 47.9519 21.2307 47.9901 21.153 48.0022C21.1073 48.0093 21.0606 48.0073 21.0157 47.9963C20.9411 47.9786 20.8881 47.9431 20.8332 47.9057C20.7527 47.8506 20.7527 47.8329 20.6506 47.7561C20.578 47.7029 20.5427 47.6754 20.4877 47.6537C20.431 47.6313 20.3698 47.6225 20.3091 47.6281C20.2609 47.6343 20.2142 47.6496 20.1717 47.6734C20.1305 47.6951 20.0324 47.7541 19.9264 47.8998C19.8714 47.9746 19.8439 48.0337 19.7909 48.1459C19.7262 48.2818 19.7105 48.3389 19.6457 48.4964C19.577 48.6598 19.5437 48.7425 19.4946 48.8271C19.4573 48.8921 19.3749 49.024 19.1413 49.2209C18.6624 49.6265 18.3033 49.6718 18.0737 50.0655C18.0654 50.0831 18.0562 50.1001 18.0462 50.1167C17.8912 50.3963 17.7715 50.6129 17.6909 50.7566Z" fill="#AA1A17"/>
  <path d="M27.9091 46.5265C27.639 46.6728 27.4038 46.8764 27.22 47.1231C27.1955 47.1553 27.1755 47.1874 27.1361 47.2496C26.9965 47.4687 26.8719 47.697 26.7632 47.933C26.5844 48.3103 26.3752 48.7493 25.9094 49.0287C25.5942 49.2163 25.2702 49.2697 24.9556 49.3161C24.6521 49.3612 24.1694 49.4061 23.4175 49.2965C23.4442 49.3937 23.4699 49.4882 23.496 49.5855C24.0999 49.6465 24.5148 49.6152 24.714 49.5939C25.1685 49.5455 25.4186 49.4603 25.5348 49.4183C25.6568 49.3723 26.0101 49.2309 26.324 48.9419C26.5226 48.7574 26.6119 48.5989 26.7901 48.277C27.0425 47.8222 26.9826 47.7728 27.2022 47.4284C27.3521 47.1922 27.4966 46.972 27.8031 46.7531C28.0047 46.6124 28.2255 46.5019 28.4589 46.4251C29.0255 46.2343 29.5501 46.2611 29.7995 46.2873C29.621 46.2548 28.6789 46.1101 27.9091 46.5265Z" fill="#AA1A17"/>
  <path d="M28.2743 45.7951C28.2439 45.9371 28.1979 46.0753 28.1369 46.2071C28.0427 46.4022 27.9445 46.4969 27.8386 46.595C27.6951 46.7303 27.6639 46.7082 27.4951 46.8433C27.5251 46.863 27.554 46.884 27.5846 46.9023C27.5948 46.8939 27.6058 46.888 27.6158 46.8795C27.7237 46.804 27.8259 46.7205 27.9214 46.6296C27.9411 46.6124 27.9598 46.5939 27.9771 46.5743C28.0918 46.4459 28.1805 46.2964 28.2384 46.1341C28.4134 45.6503 28.3312 45.0792 28.3134 44.9707C28.3437 45.2458 28.3305 45.5241 28.2743 45.7951Z" fill="#AA1A17"/>
  <path d="M27.9374 48.7122C27.8324 48.7366 27.7233 48.7378 27.6177 48.7157C27.6028 48.713 27.592 48.7085 27.5663 48.701C27.4793 48.6758 27.3946 48.6436 27.3129 48.6045C27.1792 48.5454 27.0263 48.4755 26.838 48.5104C26.7106 48.5334 26.6108 48.5976 26.5155 48.6598C26.4231 48.7189 26.2831 48.8227 26.1033 49.0317C26.0882 48.9997 26.0751 48.967 26.0605 48.9333C26.1604 48.8251 26.2702 48.7266 26.3887 48.6394C26.4696 48.579 26.5577 48.5293 26.6511 48.4913C26.753 48.4511 26.8617 48.431 26.9712 48.4322C27.066 48.4348 27.1253 48.4568 27.246 48.5013C27.4163 48.5638 27.4097 48.5917 27.5475 48.6331C27.6407 48.6604 27.7284 48.6874 27.8615 48.6724C27.9481 48.6622 28.0328 48.6393 28.1128 48.6047C28.2621 48.5382 28.3962 48.4415 28.5066 48.3208C28.4615 48.3755 28.2395 48.6407 27.9374 48.7122Z" fill="#AA1A17"/>
  <path d="M19.7065 45.6177C19.6668 45.6296 19.6286 45.6461 19.5927 45.6669C19.5521 45.6912 19.5173 45.7241 19.4907 45.7634C19.4573 45.8087 19.4632 45.8165 19.4318 45.8697C19.4252 45.8607 19.418 45.8521 19.4102 45.8441C19.4122 45.8402 19.4141 45.8382 19.4161 45.8343C19.4336 45.8004 19.4539 45.7681 19.477 45.7378C19.4812 45.7316 19.4857 45.7257 19.4907 45.7201C19.5238 45.6836 19.5638 45.6542 19.6084 45.6334C19.7438 45.5724 19.9126 45.5862 19.944 45.5881C19.8639 45.5863 19.7839 45.5962 19.7065 45.6177Z" fill="#AA1A17"/>
  <path d="M15.8549 57.0546C15.7974 56.9459 15.7627 56.8267 15.7528 56.7042C15.751 56.6838 15.7503 56.6635 15.7509 56.6431C15.751 56.5417 15.7576 56.4405 15.7705 56.3399C15.7901 56.1784 15.8137 55.9914 15.7195 55.7926C15.6547 55.6587 15.5605 55.5661 15.4664 55.4775C15.3761 55.3909 15.2269 55.263 14.958 55.1211C14.9874 55.0976 15.0149 55.0739 15.0443 55.0483C15.1868 55.13 15.321 55.2256 15.4447 55.3338C15.584 55.4559 15.6488 55.5425 15.6764 55.5838C15.7495 55.6854 15.8033 55.7994 15.8353 55.9206C15.8628 56.0249 15.8588 56.0978 15.8491 56.2395C15.8373 56.4423 15.8078 56.4442 15.8078 56.6037C15.8078 56.714 15.8098 56.8164 15.8647 56.9581C15.901 57.0509 15.9506 57.1377 16.0119 57.2161C16.1238 57.362 16.2631 57.4844 16.4221 57.5763C16.3613 57.5429 16.0218 57.3676 15.8549 57.0546Z" fill="#AA1A17"/>
  <path d="M25.2211 58.2461C25.082 58.2375 24.9447 58.2103 24.8128 58.1654C24.6106 58.0945 24.4969 58 24.3771 57.8996C24.2024 57.7519 24.2279 57.7184 24.016 57.5196C23.8668 57.3778 23.7922 57.3089 23.6549 57.24C23.4959 57.1649 23.3253 57.1176 23.1505 57.1002C23.0798 57.0943 22.9306 57.0825 22.6775 57.1179C22.6382 57.1238 22.5852 57.1317 22.5204 57.1455C22.44 57.2302 22.3399 57.2991 22.2398 57.3621C22.2379 57.3641 22.2359 57.3641 22.2339 57.366C22.4341 57.2969 22.6415 57.2513 22.8521 57.2302C23.0307 57.2124 23.2152 57.1967 23.4154 57.2518C23.7137 57.3325 23.8963 57.5314 24.0552 57.7007C24.1528 57.8083 24.2577 57.9089 24.3693 58.0019C24.3904 58.0216 24.4127 58.0399 24.436 58.0571C24.5772 58.1593 24.7373 58.2323 24.907 58.2717C25.3918 58.382 25.8805 58.1831 25.9727 58.1437C25.8393 58.185 25.5586 58.2677 25.2211 58.2461Z" fill="#AA1A17"/>
  <defs>
    <linearGradient id="paint0_linear_838_665" x1="0" y1="19.7259" x2="38.999" y2="19.7259" gradientUnits="userSpaceOnUse">
      <stop stop-color="#B50400"/>
      <stop offset="0.5133" stop-color="#B50300"/>
      <stop offset="1" stop-color="#970000"/>
    </linearGradient>
  </defs>
</svg>