<svg xmlns="http://www.w3.org/2000/svg" width="64" height="64" viewBox="0 0 64 64" fill="none">
  <rect x="4.99268" y="4.15552" width="59.0078" height="59.0078" rx="8" fill="#151C28"/>
  <rect x="0.836914" width="59.0078" height="59.0078" rx="8" fill="#0D121A"/>
  <path d="M20.1576 36.9994C20.3504 36.7855 20.6155 36.6606 20.8967 36.6606H46.3976C46.8636 36.6606 47.0966 37.2847 46.7672 37.6502L41.7297 43.2398C41.5368 43.4537 41.2717 43.5785 40.9905 43.5785H15.4897C15.0237 43.5785 14.7907 42.9545 15.1201 42.589L20.1576 36.9994Z" fill="url(#paint0_linear_838_321)"/>
  <path d="M20.1576 16.1295C20.3584 15.9156 20.6236 15.7908 20.8967 15.7908H46.3976C46.8636 15.7908 47.0966 16.4148 46.7672 16.7803L41.7297 22.3699C41.5368 22.5839 41.2717 22.7087 40.9905 22.7087H15.4897C15.0237 22.7087 14.7907 22.0846 15.1201 21.7191L20.1576 16.1295Z" fill="url(#paint1_linear_838_321)"/>
  <path d="M41.7297 26.4975C41.5368 26.2835 41.2717 26.1587 40.9905 26.1587H15.4897C15.0237 26.1587 14.7907 26.7827 15.1201 27.1482L20.1576 32.7378C20.3504 32.9518 20.6155 33.0766 20.8967 33.0766H46.3976C46.8636 33.0766 47.0966 32.4526 46.7672 32.087L41.7297 26.4975Z" fill="url(#paint2_linear_838_321)"/>
  <defs>
    <linearGradient id="paint0_linear_838_321" x1="43.9615" y1="12.452" x2="23.2577" y2="48.1911" gradientUnits="userSpaceOnUse">
      <stop stop-color="#00FFA3"/>
      <stop offset="1" stop-color="#DC1FFF"/>
    </linearGradient>
    <linearGradient id="paint1_linear_838_321" x1="36.2446" y1="7.98127" x2="15.5408" y2="43.7204" gradientUnits="userSpaceOnUse">
      <stop stop-color="#00FFA3"/>
      <stop offset="1" stop-color="#DC1FFF"/>
    </linearGradient>
    <linearGradient id="paint2_linear_838_321" x1="40.0785" y1="10.2022" x2="19.3747" y2="45.9414" gradientUnits="userSpaceOnUse">
      <stop stop-color="#00FFA3"/>
      <stop offset="1" stop-color="#DC1FFF"/>
    </linearGradient>
  </defs>
</svg>