<svg xmlns="http://www.w3.org/2000/svg" width="59" height="59" viewBox="0 0 59 59" fill="none">
  <rect width="59.0078" height="59.0078" rx="8" fill="#0D121A"/>
  <path d="M19.3205 36.9993C19.5133 36.7853 19.7784 36.6605 20.0596 36.6605H45.5605C46.0264 36.6605 46.2594 37.2846 45.93 37.6501L40.8925 43.2397C40.6997 43.4536 40.4346 43.5784 40.1534 43.5784H14.6525C14.1866 43.5784 13.9536 42.9544 14.283 42.5889L19.3205 36.9993Z" fill="url(#paint0_linear_1_13)"/>
  <path d="M19.3205 16.1295C19.5213 15.9156 19.7865 15.7908 20.0596 15.7908H45.5605C46.0264 15.7908 46.2594 16.4148 45.93 16.7803L40.8925 22.3699C40.6997 22.5839 40.4346 22.7087 40.1534 22.7087H14.6525C14.1866 22.7087 13.9536 22.0846 14.283 21.7191L19.3205 16.1295Z" fill="url(#paint1_linear_1_13)"/>
  <path d="M40.8925 26.4974C40.6997 26.2835 40.4346 26.1587 40.1534 26.1587H14.6525C14.1866 26.1587 13.9536 26.7827 14.283 27.1482L19.3205 32.7378C19.5133 32.9518 19.7784 33.0766 20.0596 33.0766H45.5605C46.0264 33.0766 46.2594 32.4525 45.93 32.087L40.8925 26.4974Z" fill="url(#paint2_linear_1_13)"/>
  <defs>
    <linearGradient id="paint0_linear_1_13" x1="43.1244" y1="12.4519" x2="22.4206" y2="48.191" gradientUnits="userSpaceOnUse">
      <stop stop-color="#00FFA3"/>
      <stop offset="1" stop-color="#DC1FFF"/>
    </linearGradient>
    <linearGradient id="paint1_linear_1_13" x1="35.4075" y1="7.98126" x2="14.7037" y2="43.7204" gradientUnits="userSpaceOnUse">
      <stop stop-color="#00FFA3"/>
      <stop offset="1" stop-color="#DC1FFF"/>
    </linearGradient>
    <linearGradient id="paint2_linear_1_13" x1="39.2414" y1="10.2022" x2="18.5376" y2="45.9414" gradientUnits="userSpaceOnUse">
      <stop stop-color="#00FFA3"/>
      <stop offset="1" stop-color="#DC1FFF"/>
    </linearGradient>
  </defs>
</svg>